PathFileType	4	(X/Y/Z)	D:\TRACE\v60_Jaco2_6-2-23\JustBodyDRS_Motion1_4-v60.trc
DataRate	CameraRate	NumFrames	NumMarkers	Units	OrigDataRate	OrigDataStartFrame	OrigNumFrames
100.00	100.00	      31	9	mm	100.00	870	      6956
Frame#	Time	front left toe			Front right toe			aft left toe			aft right toe			Arm			FL body			FR body			AL Body			AR Body			
		X1	Y1	Z1	X2	Y2	Z2	X3	Y3	Z3	X4	Y4	Z4	X5	Y5	Z5	X6	Y6	Z6	X7	Y7	Z7	X8	Y8	Z8	X9	Y9	Z9	

870	8.690	-287.74432	33.30859	-216.38773	136.11990	28.33663	-219.06032	-217.23923	-4.78041	424.87900	103.81773	2.28961	396.29568	-188.39659	1222.05579	-314.10132	-157.91321	591.08936	-345.14386	2.45412	592.47650	-350.58093	-126.00445	535.98682	598.74988	30.45750	531.22614	593.93549	
871	8.700	-288.48581	32.75372	-216.80388	136.33665	28.27563	-219.17731	-216.78252	-4.55378	424.65799	104.48435	0.26350	396.54700	-187.58069	1222.18335	-314.94553	-157.53587	591.40674	-346.41559	2.73298	592.74060	-351.37881	-128.08107	536.37433	597.63464	28.46413	531.20282	593.13654	
872	8.710	-288.06644	31.34168	-217.16982	136.72105	28.46165	-219.09695	-216.17395	-4.40585	424.51855	106.06544	1.69982	395.81851	-186.40578	1222.80017	-315.91730	-157.40215	591.82928	-347.78818	3.21596	593.21710	-352.24457	-129.85640	537.76593	596.54022	26.86510	532.73639	592.54022	
873	8.720	-287.66086	31.42247	-216.82753	136.45415	30.36566	-219.86633	-216.25287	-1.59299	423.53720	105.83517	1.61175	397.26062	-185.73126	1223.62561	-317.86002	-156.52466	592.62067	-348.63129	3.84553	593.61292	-352.82715	-131.71284	539.35388	595.75745	24.99218	534.32294	591.91028	
874	8.730	-286.66528	30.23474	-217.08510	133.21886	33.37876	-217.52013	-214.44936	2.61370	425.78531	106.19381	1.26085	395.83868	-184.81544	1224.88965	-320.31564	-155.83493	593.50916	-349.75369	4.37239	594.31714	-353.18533	-133.23222	539.95148	595.07104	23.13953	535.05359	591.60730	
875	8.740	-286.07819	30.74811	-217.67204	129.13174	38.44928	-214.15253	-212.04086	6.84708	428.38708	106.86201	1.71731	396.49783	-185.01442	1224.77075	-322.22290	-154.79367	594.19403	-350.68307	4.99084	595.04517	-353.84552	-135.48111	540.57404	593.74738	21.43499	535.87695	590.91565	
876	8.750	-285.27960	30.46892	-217.42056	125.03252	48.42123	-213.19179	-209.57562	17.76327	427.54483	107.09767	1.73497	396.23538	-184.15689	1224.76221	-324.20593	-153.70778	594.36224	-351.44504	6.02246	595.31683	-354.42795	-137.18320	541.26184	592.63995	19.64302	536.20844	590.44141	
877	8.760	-284.67520	30.27767	-217.81427	124.29670	59.38921	-212.82602	-207.31940	27.46025	426.11542	107.66927	1.98111	396.43271	-181.94514	1224.99255	-325.06812	-153.42833	594.35577	-352.59708	6.60424	595.30597	-354.84286	-138.28885	541.96033	591.80536	18.13234	536.96912	589.89368	
878	8.770	-284.10980	29.89031	-217.59930	125.13766	71.69592	-214.23300	-211.62022	40.99317	422.91400	109.01784	2.30513	396.75818	-181.20964	1224.81824	-325.54764	-152.96956	594.21667	-353.52344	7.17588	595.32330	-355.51129	-139.92139	541.91486	591.09418	17.05174	537.11566	589.59698	
879	8.780	-283.63272	29.90740	-218.02446	127.75182	85.44689	-216.16322	-216.81415	53.54210	419.45517	109.44762	2.24229	396.67242	-180.81093	1225.00317	-325.86880	-152.72156	594.25708	-354.43082	7.45565	595.07513	-356.28738	-140.69884	541.62750	590.29663	15.82763	537.06445	588.75018	
880	8.790	-283.32141	29.87690	-218.09068	129.52675	98.82865	-218.52388	-223.83470	66.16171	415.26447	109.86345	2.24389	396.58853	-180.33037	1225.33423	-326.65335	-152.14763	594.19177	-355.36420	8.32428	595.00641	-356.88864	-141.48199	540.68469	589.48486	15.05215	536.22577	588.29797	
881	8.800	-282.42725	29.30005	-218.50835	130.94861	111.95350	-220.66855	-229.54280	77.70207	411.08142	110.59715	2.24272	396.43152	-180.40152	1225.35803	-327.23544	-150.83878	593.72845	-355.69040	8.94215	594.96533	-357.44043	-142.16881	540.42126	588.61963	14.22381	535.35950	587.65533	
882	8.810	-281.60123	28.91527	-218.47992	131.19003	124.46895	-222.40742	-236.89804	90.56829	406.73120	111.53139	2.42018	396.59009	-180.11586	1224.83105	-327.57736	-150.85635	593.92902	-356.78516	9.65094	594.88330	-358.01633	-143.86818	539.56219	587.79181	12.87181	534.53528	586.90948	
883	8.820	-281.01712	29.20660	-218.55026	130.55615	136.08286	-224.33893	-241.03067	101.16092	403.02203	111.91598	2.49263	396.56516	-179.87413	1224.51440	-327.83408	-150.23178	594.10089	-357.70029	10.06630	595.20532	-358.56033	-144.71889	539.12439	587.06976	12.07080	534.15228	586.75140	
884	8.830	-280.13303	29.15706	-218.85968	129.02226	146.70137	-225.93938	-244.51212	111.42468	399.05432	112.32568	2.57204	396.42938	-178.68344	1224.74097	-329.03610	-149.51471	594.19482	-358.26419	10.69412	595.31854	-358.87692	-145.43948	538.45038	586.47797	11.05775	534.10437	586.19556	
885	8.840	-279.04901	28.51791	-219.03703	128.94984	155.43039	-227.20096	-248.52570	120.47282	395.15573	113.23552	2.83051	396.47977	-179.93088	1224.60229	-327.06149	-148.82417	594.28223	-359.00320	11.65183	595.35254	-359.25626	-146.57155	538.23242	585.77753	9.63874	533.76068	585.58441	
886	8.850	-278.49008	28.44861	-219.06003	128.91901	159.86916	-227.63477	-252.08249	125.55871	392.21640	114.13998	3.04437	396.47363	-177.65565	1225.37122	-329.61679	-148.29143	594.08362	-359.66940	12.57220	595.32654	-359.56595	-147.42259	538.07751	585.24335	9.12899	533.64032	585.31177	
887	8.860	-277.69778	28.14842	-219.32079	129.52864	162.31941	-227.79112	-256.61444	128.58293	389.65070	114.70330	3.23722	396.39542	-176.48697	1225.47546	-331.75070	-147.96346	593.95844	-360.18814	12.66235	595.10278	-359.75488	-148.06296	538.35864	584.44464	8.05614	533.61029	585.13684	
888	8.870	-277.15378	28.07174	-219.48660	130.54019	161.86682	-226.86693	-261.50409	127.87499	388.78503	115.39559	3.55831	396.32529	-176.56308	1224.89246	-331.89828	-147.43178	594.01892	-360.52896	13.00122	595.02521	-360.01468	-149.03378	538.12836	584.31744	7.35933	533.70935	585.04773	
889	8.880	-276.57260	28.17115	-219.51634	130.30949	158.74414	-226.18216	-266.79889	125.95493	387.91684	116.07542	3.81845	396.32343	-176.33157	1224.32629	-331.17783	-146.99324	594.05261	-360.90924	13.30245	595.01270	-360.28903	-150.03494	538.57123	583.76050	6.99016	534.04431	584.72009	
890	8.890	-275.53061	28.00403	-219.78813	129.90811	154.25964	-225.07158	-271.92896	123.17025	387.20068	116.97373	4.27097	396.34259	-176.24475	1224.34729	-332.00043	-146.76187	593.95709	-361.26837	13.72866	594.88452	-360.50134	-150.28371	538.80811	583.45898	6.48381	534.27130	584.59961	
891	8.900	-274.73105	27.76133	-220.08481	128.73871	148.32755	-224.53294	-275.91476	118.41011	386.32404	117.54312	4.60769	396.31729	-176.72911	1224.37134	-333.25745	-146.37761	593.75305	-361.70975	13.97279	594.65460	-360.47794	-150.93330	539.30865	583.12500	5.41355	534.45184	584.48730	
892	8.910	-274.28690	27.76002	-220.03207	126.67298	141.04242	-224.15115	-279.83469	113.03779	385.49081	117.83899	4.71895	396.34814	-176.40613	1224.21655	-334.14908	-146.15031	593.43195	-361.94705	14.21467	594.42981	-360.64081	-151.38609	539.34375	582.94934	4.98629	535.01184	584.52588	
893	8.920	-273.30624	27.29352	-220.19209	125.11874	133.01736	-223.92215	-283.13852	106.45968	384.70294	118.75145	5.08261	396.39285	-177.48790	1223.37109	-333.73328	-145.06187	592.92053	-361.75113	14.37613	594.20654	-360.70859	-152.00188	539.61230	582.75079	4.62712	535.20526	584.43262	
894	8.930	-272.37103	26.94232	-220.33086	123.40714	123.82792	-223.87825	-286.04349	98.24633	383.98093	119.77397	5.40557	396.34964	-176.84473	1223.24902	-334.33823	-145.86600	593.01154	-362.28757	14.40216	594.09857	-360.74454	-152.60989	540.01782	582.53033	4.57589	535.18341	584.33649	
895	8.940	-271.77719	26.90913	-220.39944	121.77613	113.87925	-224.07312	-289.85815	89.73380	383.35944	120.26395	5.57940	396.26865	-174.28810	1223.81641	-334.83160	-145.07153	592.63251	-361.89590	14.77389	593.99982	-361.00806	-152.68643	540.16119	582.46521	4.50629	535.19659	584.15704	
896	8.950	-271.35107	26.88269	-220.39902	119.85084	103.03336	-223.99580	-292.91510	79.79455	383.18268	121.03555	5.91407	396.19122	-173.93802	1223.90784	-335.00757	-145.26634	592.66241	-361.95340	14.71165	593.90100	-361.06982	-152.60498	540.24310	582.38007	4.34194	535.25183	583.91858	
897	8.960	-270.27429	26.39923	-220.49983	117.85511	92.14920	-223.99228	-295.68213	69.46960	383.41324	122.07968	6.27986	396.22726	-173.70502	1223.84741	-335.19391	-145.20996	592.61499	-362.01825	14.65235	593.73633	-361.16397	-152.70381	540.14819	582.35413	4.14114	535.30780	583.69928	
898	8.970	-269.74347	26.24482	-220.70335	115.73499	82.20502	-224.31819	-296.58096	58.88190	384.24738	122.72526	6.27304	396.16779	-173.92201	1223.80310	-335.05869	-145.18324	592.49078	-362.06378	14.61112	593.52533	-361.26151	-152.78143	540.06885	582.28113	3.96220	535.32275	583.57745	
899	8.980	-268.85284	26.06560	-220.74026	113.88058	72.21933	-224.68521	-296.74442	49.08841	385.07077	123.50368	6.57570	396.02222	-176.06534	1223.20581	-334.43817	-145.02539	592.28064	-362.01218	14.62704	593.28772	-361.27194	-152.84837	540.03668	582.25305	3.89596	535.25305	583.59308	
900	8.990	-267.93188	25.74103	-220.82202	112.56322	62.87550	-224.74702	-296.17398	40.24500	386.00925	124.49169	6.88289	395.99667	-176.11507	1223.00916	-334.37411	-145.19412	592.16772	-361.97513	14.47020	592.99097	-361.28287	-152.84035	540.00818	582.27356	3.98870	535.09320	583.64026	
